<?xml version="1.0" standalone="no"?>
<!DOCTYPE svg PUBLIC "-//W3C//DTD SVG 20010904//EN"
 "http://www.w3.org/TR/2001/REC-SVG-20010904/DTD/svg10.dtd">
<svg version="1.0" xmlns="http://www.w3.org/2000/svg"
 width="700.000000pt" height="700.000000pt" viewBox="0 0 700.000000 700.000000"
 preserveAspectRatio="xMidYMid meet">
<metadata>
Created by potrace 1.11, written by Peter Selinger 2001-2013
</metadata>
<g transform="translate(0.000000,700.000000) scale(0.100000,-0.100000)"
fill="#000000" stroke="none">
<path d="M4620 6964 c-74 -19 -147 -36 -162 -39 -25 -5 -213 -48 -268 -62 -30
-7 -17 -4 -180 -43 -74 -17 -173 -40 -220 -52 -107 -25 -628 -147 -655 -153
-11 -3 -33 -8 -50 -12 -16 -4 -32 -7 -35 -8 -3 0 -36 -8 -75 -18 -270 -64
-363 -86 -385 -91 -14 -2 -74 -16 -135 -31 -60 -15 -117 -28 -125 -30 -8 -2
-94 -22 -190 -45 -96 -23 -184 -43 -195 -46 -11 -2 -29 -6 -40 -8 -11 -3 -60
-14 -110 -26 -49 -12 -97 -23 -105 -25 -8 -2 -37 -9 -65 -15 -27 -6 -57 -13
-65 -15 -8 -2 -132 -31 -275 -65 -143 -34 -268 -63 -278 -65 -10 -2 -26 -6
-35 -9 -9 -3 -28 -7 -42 -10 -14 -2 -110 -25 -215 -50 -104 -24 -269 -63 -365
-86 -96 -22 -214 -50 -262 -61 l-88 -21 0 -295 0 -294 40 -172 c22 -95 56
-239 75 -322 20 -82 47 -197 60 -255 14 -58 43 -181 65 -275 56 -238 119 -505
141 -600 10 -44 37 -159 59 -255 23 -96 43 -182 45 -190 2 -8 8 -35 15 -60 7
-25 14 -54 16 -65 2 -11 38 -164 79 -340 42 -176 78 -329 80 -340 3 -11 19
-78 36 -150 17 -71 32 -139 34 -150 2 -11 34 -146 70 -300 71 -298 73 -306 81
-345 3 -14 16 -68 29 -120 13 -52 26 -106 29 -120 6 -35 153 -662 171 -730 8
-30 16 -66 19 -80 3 -14 25 -112 50 -217 25 -106 46 -195 46 -198 0 -8 2131
-1 2155 7 11 4 76 20 145 36 340 81 606 143 627 147 13 2 33 7 45 11 19 6 237
57 298 70 14 3 41 9 60 14 19 5 152 37 295 70 143 34 267 63 275 65 8 2 56 13
105 24 73 17 319 75 410 97 11 3 31 7 45 10 14 3 43 10 65 16 22 5 51 12 64
15 22 4 179 40 336 78 122 30 491 116 515 121 14 3 64 14 111 26 l87 21 -15
61 c-8 33 -16 68 -18 76 -2 8 -26 114 -55 235 -28 121 -60 258 -71 305 -11 47
-27 112 -35 145 -8 33 -16 69 -18 80 -2 11 -18 79 -36 150 -17 72 -40 171 -51
220 -11 50 -33 144 -49 210 -58 241 -100 418 -104 439 -2 11 -11 50 -20 86
-25 104 -76 320 -80 344 -2 11 -16 68 -30 126 -14 58 -62 260 -106 450 -44
190 -83 356 -87 370 -3 14 -8 33 -9 42 -4 20 -44 189 -79 333 -13 55 -33 141
-45 190 -11 50 -27 117 -35 150 -24 101 -56 239 -61 260 -2 11 -17 76 -34 145
-31 130 -110 464 -115 490 -2 8 -20 85 -41 170 -20 85 -40 173 -45 195 -5 22
-27 117 -49 210 -51 210 -44 183 -69 290 -11 50 -36 157 -56 240 -19 82 -35
151 -35 152 0 2 -152 3 -337 2 l-338 -1 -135 -34z"/>
</g>
</svg>
